<svg>
  <symbol id="arrow-left" xmlns="http://www.w3.org/2000/svg" fill="none" viewBox="0 0 32 32"><path fill="currentColor" d="M26.67 14.67H10.44L17.9 7.2 16 5.33 5.33 16 16 26.67l1.88-1.88-7.44-7.46h16.23v-2.66Z"/></symbol>

  <symbol id="arrow-right" xmlns="http://www.w3.org/2000/svg" fill="none" viewBox="0 0 24 24"><path fill="currentColor" d="m12 4-1.41 1.41L16.17 11H4v2h12.17l-5.58 5.59 1.4 1.41L20 12l-8-8Z"/></symbol>

  <symbol id="arrow-down" xmlns="http://www.w3.org/2000/svg" fill="none" viewBox="0 0 24 24"><path fill="currentColor" d="m7 10 5 5 5-5H7Z"/></symbol>

  <symbol id="arrow-down-second" xmlns="http://www.w3.org/2000/svg" fill="none" viewBox="0 0 24 24"><path fill="currentColor" d="m19 15-1.41-1.41L13 18.17V2h-2v16.17l-4.59-4.59L5 15l7 7 7-7Z"/></symbol>

  <symbol id="long-arrow-down" xmlns="http://www.w3.org/2000/svg" fill="none" viewBox="0 0 16 73"><path fill="currentColor" d="M7.3 72.7a1 1 0 0 0 1.4 0l6.37-6.36a1 1 0 0 0-1.41-1.41L8 70.59l-5.66-5.66a1 1 0 0 0-1.41 1.41l6.36 6.37ZM7 0v72h2V0H7Z"/></symbol>

  <symbol id="arrow-down-right" xmlns="http://www.w3.org/2000/svg" fill="none" viewBox="0 0 49 25"><path fill="currentColor" d="M48.7 17.45a1 1 0 0 0 0-1.41l-6.36-6.36a1 1 0 0 0-1.41 1.4l5.66 5.67-5.66 5.65a1 1 0 0 0 1.41 1.42l6.37-6.37Zm-48.7.3h48v-2H0v2Z"/><path stroke="currentColor" stroke-width="2" d="M1 0v16"/></symbol>

  <symbol id="sun" xmlns="http://www.w3.org/2000/svg" fill="none" viewBox="0 0 24 24"><path fill="currentColor" d="M17.48 13.12a53.55 53.55 0 0 1 4.65-.96 15.85 15.85 0 0 1 1.5-.17c-.45-.02-.98-.08-1.52-.16-.67-.1-1.37-.22-2.04-.36a63.57 63.57 0 0 1-2.59-.59 5.5 5.5 0 0 0-.17-.65 61.9 61.9 0 0 1 2.1-1.95C20.43 7.4 21.55 6.5 22.4 6a23.7 23.7 0 0 1-3.96 1.6 56.58 56.58 0 0 1-2.24.69 5.7 5.7 0 0 0-.48-.48c.4-1.4 1.38-4.62 2.29-6.2-.91 1.57-3.2 4.02-4.23 5.08a5.62 5.62 0 0 0-.65-.17A63.1 63.1 0 0 1 12.54 4C12.26 2.6 12 1.06 12 0c0 1.27-.37 3.26-.72 4.82a64 64 0 0 1-.4 1.7c-.22.04-.44.1-.65.17a71.2 71.2 0 0 1-1.67-1.8A23.27 23.27 0 0 1 6 1.62a28.37 28.37 0 0 1 2.03 5.32 63.6 63.6 0 0 1 .26.88 5.66 5.66 0 0 0-.48.48l-.88-.26a34.29 34.29 0 0 1-5.01-1.84c1.19.76 2.75 2.14 3.87 3.18l.9.86a5.6 5.6 0 0 0-.18.65 63.22 63.22 0 0 1-4.2.89C1.47 11.9.65 12 0 12a16.39 16.39 0 0 1 3.2.39c1.3.24 2.56.54 3.32.73.04.22.1.44.17.65-.27.26-.62.6-1.04.98-.7.66-1.57 1.43-2.4 2.1-.6.46-1.16.87-1.64 1.15.45-.26 1.04-.53 1.68-.78a48.34 48.34 0 0 1 4.52-1.5c.15.16.3.32.48.47l-.06.21c-.44 1.5-1.36 4.49-2.23 6 .85-1.48 2.9-3.7 4-4.86l.23-.23c.2.07.43.13.65.17a59.24 59.24 0 0 1 .76 3.47c.2 1.11.36 2.23.36 3.05a20.85 20.85 0 0 1 .52-3.88 59.1 59.1 0 0 1 .6-2.64c.22-.04.44-.1.65-.17l.49.5c1.14 1.21 2.95 3.22 3.74 4.58-.91-1.57-1.88-4.8-2.29-6.2a5.68 5.68 0 0 0 .48-.48c1.4.4 4.63 1.38 6.2 2.29-1.57-.91-4.02-3.2-5.08-4.23a5.68 5.68 0 0 0 .17-.65Z"/></symbol>

  <symbol id="moon" xmlns="http://www.w3.org/2000/svg" fill="none" viewBox="0 0 24 24"><path fill="currentColor" d="M10.62 2a10.09 10.09 0 0 0-5.9 4.17 10.23 10.23 0 0 0 1.7 13.3A10.04 10.04 0 0 0 13.06 22h.04a9.98 9.98 0 0 0 7.8-3.77.44.44 0 0 0-.47-.69 9.11 9.11 0 0 1-9.51-14.8.44.44 0 0 0-.3-.74Z"/></symbol>

  <symbol id="chevron-left" xmlns="http://www.w3.org/2000/svg" fill="none" viewBox="0 0 24 24"><path fill="currentColor" d="M15.41 16.59 10.83 12l4.58-4.59L14 6l-6 6 6 6 1.41-1.41Z"/></symbol>

  <symbol id="chevron-right" xmlns="http://www.w3.org/2000/svg" fill="none" viewBox="0 0 24 24"><path fill="currentColor" d="M8.59 16.59 13.17 12 8.59 7.41 10 6l6 6-6 6-1.41-1.41Z"/></symbol>

  <symbol id="chevron-down" xmlns="http://www.w3.org/2000/svg" fill="none" viewBox="0 0 24 24"><path fill="currentColor" d="M7.41 8.59 12 13.17l4.59-4.58L18 10l-6 6-6-6 1.41-1.41Z"/></symbol>

  <symbol id="linkedin" xmlns="http://www.w3.org/2000/svg" fill="none" viewBox="0 0 24 24"><path fill="currentColor" fill-rule="evenodd" d="M7.14 20.44V8.67h-3.9v11.77h3.9ZM5.2 7.07c1.36 0 2.21-.9 2.21-2.04C7.37 3.88 6.55 3 5.21 3 3.87 3 3 3.88 3 5.03c0 1.13.85 2.04 2.16 2.04h.03ZM9.3 20.44h3.92v-6.57c0-.35.02-.7.13-.96.28-.7.92-1.43 2-1.43 1.42 0 1.99 1.08 1.99 2.67v6.3h3.9v-6.76c0-3.61-1.92-5.3-4.5-5.3a3.9 3.9 0 0 0-3.55 1.99h.03v-1.7H9.3c.05 1.1 0 11.76 0 11.76Z" clip-rule="evenodd"/></symbol>

  <symbol id="linkedin-alt" xmlns="http://www.w3.org/2000/svg" fill="none" viewBox="0 0 24 24"><path fill="currentColor" fill-rule="evenodd" d="M6.65 22V7.83H1.32V22h5.33ZM3.98 5.9C5.84 5.9 7 4.8 7 3.45 6.97 2.05 5.84 1 4.02 1 2.19 1 1 2.06 1 3.45 1 4.8 2.16 5.9 3.95 5.9h.03ZM9 22h4.59v-7.64c0-.4.03-.82.15-1.1a2.5 2.5 0 0 1 2.35-1.67c1.66 0 2.32 1.25 2.32 3.1V22H23v-7.84C23 9.96 20.74 8 17.72 8a4.57 4.57 0 0 0-4.16 2.3h.03V8.32H9C9.06 9.6 9 22 9 22Z" clip-rule="evenodd"/></symbol>

  <symbol id="youtube" xmlns="http://www.w3.org/2000/svg" fill="none" viewBox="0 0 26 18"><path fill="currentColor" fill-rule="evenodd" d="M3.79.33A3.94 3.94 0 0 0 .16 4.1C.08 5.75 0 7.64 0 8.94c0 1.32.08 3.24.16 4.9a3.93 3.93 0 0 0 3.57 3.76c2.2.2 5.37.4 9.27.4 3.89 0 7.06-.2 9.25-.4 2-.18 3.49-1.8 3.58-3.78.09-1.74.17-3.74.17-4.88 0-1.12-.08-3.09-.16-4.82-.1-2-1.63-3.63-3.65-3.79C20.03.16 16.91 0 13 0 9.08 0 5.95.17 3.79.33Zm6.61 4.8 6.7 3.81-6.7 3.82V5.13Z" clip-rule="evenodd"/></symbol>

  <symbol id="instagram" xmlns="http://www.w3.org/2000/svg" fill="none" viewBox="0 0 24 24"><path fill="currentColor" d="M12 3.27c-2.37 0-2.67.01-3.6.06a6.4 6.4 0 0 0-2.12.4c-.57.22-1.06.52-1.54 1-.49.5-.79.98-1 1.55a6.38 6.38 0 0 0-.41 2.12c-.05.93-.06 1.23-.06 3.6s.01 2.67.06 3.6c.04.93.19 1.56.4 2.12.22.57.52 1.06 1 1.54.5.49.98.79 1.55 1 .56.23 1.2.37 2.12.41a62 62 0 0 0 3.6.06c2.37 0 2.67-.01 3.6-.06a6.42 6.42 0 0 0 2.12-.4 4.27 4.27 0 0 0 1.54-1c.49-.5.79-.98 1-1.55.22-.56.37-1.2.41-2.12.05-.93.06-1.23.06-3.6s-.01-2.67-.06-3.6a6.47 6.47 0 0 0-.4-2.12 4.28 4.28 0 0 0-1-1.54 4.27 4.27 0 0 0-1.55-1 6.42 6.42 0 0 0-2.12-.41c-.93-.05-1.23-.06-3.6-.06Zm-.78 1.58H12a61 61 0 0 1 3.53.05c.85.03 1.31.18 1.62.3.4.15.7.34 1 .65.3.3.5.6.65 1 .12.31.27.77.3 1.62.05.92.06 1.2.06 3.53s-.01 2.6-.06 3.52a4.83 4.83 0 0 1-.3 1.62c-.15.41-.34.7-.65 1-.3.31-.6.5-1 .66-.31.12-.77.26-1.62.3-.92.04-1.2.05-3.53.05s-2.6 0-3.53-.05a4.84 4.84 0 0 1-1.62-.3 2.7 2.7 0 0 1-1-.65c-.3-.3-.5-.6-.65-1-.12-.31-.26-.78-.3-1.63A61 61 0 0 1 4.85 12c0-2.33 0-2.6.05-3.53.04-.85.18-1.31.3-1.62.16-.4.34-.7.65-1 .3-.3.6-.5 1-.66.31-.12.77-.26 1.62-.3.8-.03 1.12-.04 2.75-.05Zm5.44 1.44a1.05 1.05 0 1 0 0 2.1 1.05 1.05 0 0 0 0-2.1ZM12 7.52a4.48 4.48 0 1 0 0 8.96 4.48 4.48 0 0 0 0-8.96Zm0 1.57a2.9 2.9 0 1 1 0 5.82 2.9 2.9 0 0 1 0-5.82Z"/></symbol>

  <symbol id="facebook" xmlns="http://www.w3.org/2000/svg" fill="none" viewBox="0 0 24 24"><path fill="currentColor" d="m17.16 13.71.63-4h-3.7V6.93c0-1.14.42-2 2.1-2H18V1.29A22.3 22.3 0 0 0 14.93 1c-3.2 0-5.44 2-5.44 5.57v3.14H6v4h3.49V23.8a12.55 12.55 0 0 0 4.6 0V13.7h3.07Z"/></symbol>

  <symbol id="twitter" xmlns="http://www.w3.org/2000/svg" fill="none" viewBox="0 0 24 20"><path fill="currentColor" d="m21.48 4.96.01.64c0 6.45-4.91 13.9-13.9 13.9-2.66 0-5.26-.76-7.5-2.2a9.81 9.81 0 0 0 7.23-2.03 4.9 4.9 0 0 1-4.56-3.38c.74.14 1.5.1 2.21-.09a4.89 4.89 0 0 1-3.92-4.79v-.06c.68.38 1.44.59 2.22.61a4.9 4.9 0 0 1-1.51-6.52 13.87 13.87 0 0 0 10.07 5.1 4.89 4.89 0 0 1 8.33-4.46A9.8 9.8 0 0 0 23.26.5a4.9 4.9 0 0 1-2.15 2.7 9.72 9.72 0 0 0 2.8-.77 9.93 9.93 0 0 1-2.43 2.53Z"/></symbol>

  <symbol id="pinterest" xmlns="http://www.w3.org/2000/svg" fill="none" viewBox="0 0 24 24"><path fill="currentColor" d="M11.96.08a11.96 11.96 0 0 0-4.36 23.1c-.1-.95-.2-2.4.04-3.44l1.4-5.94s-.35-.72-.35-1.78c0-1.66.96-2.9 2.16-2.9 1.02 0 1.52.77 1.52 1.68 0 1.03-.66 2.56-1 3.99-.28 1.19.6 2.16 1.78 2.16 2.12 0 3.76-2.24 3.76-5.48 0-2.86-2.06-4.87-5-4.87-3.4 0-5.4 2.56-5.4 5.2 0 1.02.4 2.13.89 2.72.1.12.11.23.08.35l-.33 1.35c-.05.22-.17.27-.4.16-1.5-.7-2.43-2.88-2.43-4.63 0-3.77 2.74-7.24 7.9-7.24 4.15 0 7.38 2.96 7.38 6.91 0 4.12-2.6 7.44-6.2 7.44-1.22 0-2.36-.63-2.75-1.37l-.74 2.84c-.27 1.04-1 2.34-1.5 3.14A11.96 11.96 0 1 0 11.97.07Z"/></symbol>

  <symbol id="link" xmlns="http://www.w3.org/2000/svg" fill="none" viewBox="0 0 24 24"><path fill="currentColor" d="M20.43 2.24A5.65 5.65 0 0 0 12.6 3l-1.66 1.97A1.4 1.4 0 0 0 13.1 6.8l1.65-1.98a2.8 2.8 0 0 1 4.02-.3A2.87 2.87 0 0 1 19 8.48l-3.43 4.12-.04.03a2.8 2.8 0 0 1-4.17.07 1.4 1.4 0 0 0-2.06 1.92 5.63 5.63 0 0 0 8.43-.22l3.43-4.1a5.79 5.79 0 0 0 .67-6.36 5.53 5.53 0 0 0-1.4-1.7Z"/><path fill="currentColor" d="m10.3 17.46-1.48 1.76a2.87 2.87 0 0 1-3.94.48 2.8 2.8 0 0 1-.42-4l3.5-4.19.02-.03a2.8 2.8 0 0 1 4.22-.02 1.4 1.4 0 0 0 2.12-.02l.01-.02a1.39 1.39 0 0 0-.02-1.82 5.62 5.62 0 0 0-8.53.12L2.3 13.89a5.65 5.65 0 0 0 2.55 8.93 5.53 5.53 0 0 0 2.7.18A5.79 5.79 0 0 0 11 21.03l1.47-1.77a1.4 1.4 0 1 0-2.17-1.8Z"/></symbol>

  <symbol id="burger" xmlns="http://www.w3.org/2000/svg" fill="none" viewBox="0 0 32 32"><path fill="currentColor" d="M4 24h24v-2.67H4V24Zm0-6.67h24v-2.66H4v2.66ZM4 8v2.67h24V8H4Z"/></symbol>

  <symbol id="workspaces" xmlns="http://www.w3.org/2000/svg" fill="none" viewBox="0 0 24 24"><path fill="currentColor" d="M6 13c-2.2 0-4 1.8-4 4s1.8 4 4 4 4-1.8 4-4-1.8-4-4-4Zm6-10C9.8 3 8 4.8 8 7s1.8 4 4 4 4-1.8 4-4-1.8-4-4-4Zm6 10c-2.2 0-4 1.8-4 4s1.8 4 4 4 4-1.8 4-4-1.8-4-4-4Z"/></symbol>

  <symbol id="architecture" xmlns="http://www.w3.org/2000/svg" fill="none" viewBox="0 0 24 24"><path fill="currentColor" d="M6.36 18.78 6.61 21l1.62-1.54 2.77-7.6a3.92 3.92 0 0 1-1.77-.98l-2.87 7.9ZM14.77 10.88c-.49.47-1.1.81-1.77.98l2.77 7.6L17.39 21l.26-2.22-2.88-7.9ZM15 8c0-1.3-.84-2.4-2-2.82V3h-2v2.18A3 3 0 1 0 15 8Zm-3 1a1 1 0 0 1-1-1 1 1 0 0 1 1-1 1 1 0 0 1 1 1 1 1 0 0 1-1 1Z"/></symbol>

  <symbol id="verified" xmlns="http://www.w3.org/2000/svg" fill="none" viewBox="0 0 24 24"><path fill="currentColor" d="m23 12-2.44-2.79.34-3.69-3.61-.82-1.89-3.2L12 2.96 8.6 1.5 6.71 4.69 3.1 5.5l.34 3.7L1 12l2.44 2.79-.34 3.7 3.61.82L8.6 22.5l3.4-1.47 3.4 1.46 1.89-3.19 3.61-.82-.34-3.69L23 12Zm-12.91 4.72-3.8-3.81 1.48-1.48 2.32 2.33 5.85-5.87 1.48 1.48-7.33 7.35Z"/></symbol>

  <symbol id="check" xmlns="http://www.w3.org/2000/svg" viewBox="0 0 24 24"><path fill="currentColor" d="M9 16.17L4.83 12l-1.42 1.41L9 19L21 7l-1.41-1.41z"/></symbol>

  <symbol id="share" xmlns="http://www.w3.org/2000/svg" fill="none" viewBox="0 0 40 40"><path fill="currentColor" d="M26.67 8.33 24.3 10.7l-2.65-2.65v18.62h-3.3V8.05L15.7 10.7l-2.37-2.37L20 1.67l6.67 6.66Zm6.66 8.34V35c0 1.83-1.5 3.33-3.33 3.33H10A3.33 3.33 0 0 1 6.67 35V16.67A3.32 3.32 0 0 1 10 13.33h5v3.34h-5V35h20V16.67h-5v-3.34h5a3.33 3.33 0 0 1 3.33 3.34Z"/></symbol>

  <symbol id="cube" xmlns="http://www.w3.org/2000/svg" fill="none" viewBox="0 0 23 24"><path stroke="currentColor" d="M.96 7.99 11 1.29M.96 7.98 11 15.73M.96 7.99v8.3M11 1.29l11.47 6.7M11 1.29V9.1m11.47-1.12v8.3m0-8.3L11 15.73m11.47.56L11 22.7m11.47-6.42L11 9.1m0 13.6L.96 16.3M11 22.7v-6.98m-10.05.56L11 9.1"/></symbol>

  <symbol id="portal" xmlns="http://www.w3.org/2000/svg" fill="none" viewBox="0 0 39 31"><path fill="currentColor" d="M14.93 22.05a.59.59 0 0 1-.54-.37.58.58 0 0 1 .14-.63l3.53-3.35a.59.59 0 0 1 .84.01.58.58 0 0 1-.03.83l-3.53 3.35c-.11.1-.26.16-.4.16ZM14.92 27.21a.59.59 0 0 1-.54-.36.58.58 0 0 1-.04-.23l.01-3.33a.57.57 0 0 1 .37-.53.59.59 0 0 1 .77.32c.02.07.04.14.04.22l-.02 3.33c0 .16-.06.3-.17.41a.59.59 0 0 1-.42.17ZM23.75 22.07a.59.59 0 0 1-.4-.16l-3.54-3.35a.58.58 0 0 1-.14-.63.58.58 0 0 1 .54-.38.6.6 0 0 1 .42.17l3.53 3.35a.58.58 0 0 1-.4 1ZM23.76 27.23a.59.59 0 0 1-.58-.58l-.02-3.33a.58.58 0 0 1 .58-.59.59.59 0 0 1 .59.58l.02 3.33a.58.58 0 0 1-.36.54.59.59 0 0 1-.22.05ZM10.26 19.98a.59.59 0 0 1-.55-.38.58.58 0 0 1 .17-.65l8.14-6.84a.6.6 0 0 1 .82.07.58.58 0 0 1-.06.82l-8.14 6.84a.59.59 0 0 1-.38.14ZM10.25 28.27a.59.59 0 0 1-.58-.58l.01-6.41c0-.16.06-.3.17-.41a.59.59 0 0 1 .96.19c.03.07.04.14.04.22l-.01 6.41a.58.58 0 0 1-.59.58ZM28.44 19.99a.59.59 0 0 1-.38-.14l-8.13-6.84a.58.58 0 0 1-.07-.82.58.58 0 0 1 .63-.18c.07.02.14.06.2.11l8.13 6.84a.58.58 0 0 1-.37 1.03ZM28.45 28.29a.59.59 0 0 1-.58-.58l-.02-6.42a.58.58 0 0 1 .36-.54.59.59 0 0 1 .81.54l.02 6.41a.58.58 0 0 1-.36.54.6.6 0 0 1-.22.05ZM5.6 17.9a.59.59 0 0 1-.56-.38.58.58 0 0 1 .18-.65L17.97 6.53a.59.59 0 0 1 .82.09.58.58 0 0 1-.08.81L5.97 17.77a.59.59 0 0 1-.38.13ZM5.58 29.34a.59.59 0 0 1-.58-.59l.01-9.5a.58.58 0 0 1 .59-.57.59.59 0 0 1 .58.58l-.01 9.5a.58.58 0 0 1-.59.58ZM33.14 17.91a.59.59 0 0 1-.37-.13L20.02 7.44a.58.58 0 0 1 .32-1.03c.15-.01.3.03.43.13L33.5 16.88a.58.58 0 0 1-.37 1.03ZM33.15 29.34a.59.59 0 0 1-.59-.58l-.01-9.5a.58.58 0 0 1 .58-.58.59.59 0 0 1 .59.59l.01 9.5a.58.58 0 0 1-.36.53.6.6 0 0 1-.22.04ZM.92 15.83a.59.59 0 0 1-.55-.39.58.58 0 0 1 .19-.64L17.9.96a.59.59 0 0 1 .82.1.58.58 0 0 1-.09.8L1.3 15.7a.59.59 0 0 1-.37.13ZM.92 16.66a.6.6 0 0 1 .54.36c.03.07.05.14.05.22v12.58a.58.58 0 0 1-.59.58.59.59 0 0 1-.59-.58V17.24a.58.58 0 0 1 .59-.58ZM37.83 15.83a.59.59 0 0 1-.37-.13L20.11 1.87a.58.58 0 0 1 .3-1.03c.16-.02.32.03.44.12L38.2 14.8a.58.58 0 0 1-.37 1.03ZM37.83 16.66a.6.6 0 0 1 .55.36c.03.07.04.14.04.22v12.58a.58.58 0 0 1-.59.58.59.59 0 0 1-.58-.58V17.24a.58.58 0 0 1 .58-.58Z"/></symbol>

  <symbol id="star" xmlns="http://www.w3.org/2000/svg" fill="none" viewBox="0 0 56 56"><path fill="currentColor" d="M55.63 27.56C35.15 24.3 31.7 20.86 28.44.37c-.08-.5-.8-.5-.88 0C24.3 20.85 20.86 24.3.37 27.57c-.5.07-.5.79 0 .87 20.48 3.26 23.93 6.7 27.2 27.19.07.5.79.5.87 0 3.26-20.48 6.7-23.93 27.19-27.2.5-.07.5-.79 0-.87Z"/></symbol>

  <symbol id="trends" xmlns="http://www.w3.org/2000/svg" fill="none" viewBox="0 0 24 24"><path fill="currentColor" d="m16 6 2.29 2.29-4.88 4.88-4-4L2 16.59 3.41 18l6-6 4 4 6.3-6.29L22 12V6h-6Z"/></symbol>

  <symbol id="spinner" xmlns="http://www.w3.org/2000/svg" fill="none" viewBox="0 0 24 24"><path fill="currentColor" d="M10.14,1.16a11,11,0,0,0-9,8.92A1.59,1.59,0,0,0,2.46,12,1.52,1.52,0,0,0,4.11,10.7a8,8,0,0,1,6.66-6.61A1.42,1.42,0,0,0,12,2.69h0A1.57,1.57,0,0,0,10.14,1.16Z"/></symbol>

  <symbol id="repeat" xmlns="http://www.w3.org/2000/svg" fill="none" viewBox="0 0 24 24"><path fill="currentColor" d="M7 7h10v3l4-4-4-4v3H5v6h2V7Zm10 10H7v-3l-4 4 4 4v-3h12v-6h-2v4Z"/></symbol>

  <symbol id="close" xmlns="http://www.w3.org/2000/svg" fill="none" viewBox="0 0 32 32"><path fill="currentColor" d="m25.33 8.55-1.88-1.88L16 14.12 8.55 6.67 6.67 8.55 14.12 16l-7.45 7.45 1.88 1.88L16 17.88l7.45 7.45 1.88-1.88L17.88 16l7.45-7.45Z"/></symbol>

  <symbol id="bath" xmlns="http://www.w3.org/2000/svg" fill="none" viewBox="0 0 24 18"><path fill="currentColor" d="M3.03777 14.4615C2.78694 14.4615 2.57691 14.3766 2.40768 14.207C2.23844 14.0373 2.15382 13.827 2.15382 13.5762C2.15382 13.3254 2.23867 13.1153 2.40835 12.9461C2.57803 12.7769 2.78829 12.6923 3.03913 12.6923C3.28994 12.6923 3.49997 12.7771 3.6692 12.9468C3.83843 13.1165 3.92305 13.3267 3.92305 13.5776C3.92305 13.8284 3.83821 14.0384 3.66852 14.2076C3.49884 14.3769 3.28859 14.4615 3.03777 14.4615ZM6.9993 14.4615C6.74847 14.4615 6.53843 14.3766 6.3692 14.207C6.19998 14.0373 6.11538 13.827 6.11538 13.5762C6.11538 13.3254 6.20021 13.1153 6.36987 12.9461C6.53956 12.7769 6.74982 12.6923 7.00065 12.6923C7.25148 12.6923 7.46152 12.7771 7.63075 12.9468C7.79997 13.1165 7.88457 13.3267 7.88457 13.5776C7.88457 13.8284 7.79974 14.0384 7.63007 14.2076C7.46039 14.3769 7.25013 14.4615 6.9993 14.4615ZM10.9608 14.4615C10.71 14.4615 10.5 14.3766 10.3308 14.207C10.1615 14.0373 10.0769 13.827 10.0769 13.5762C10.0769 13.3254 10.1617 13.1153 10.3314 12.9461C10.5011 12.7769 10.7114 12.6923 10.9622 12.6923C11.213 12.6923 11.423 12.7771 11.5923 12.9468C11.7615 13.1165 11.8461 13.3267 11.8461 13.5776C11.8461 13.8284 11.7613 14.0384 11.5916 14.2076C11.4219 14.3769 11.2117 14.4615 10.9608 14.4615ZM0.5 10.5V8.99998C0.5 7.32948 1.04904 5.88429 2.14712 4.66443C3.24519 3.44456 4.61282 2.7436 6.25 2.56155V0.5H7.74995V2.56155C9.38713 2.7436 10.7548 3.44456 11.8528 4.66443C12.9509 5.88429 13.5 7.32948 13.5 8.99998V10.5H0.5ZM1.99997 8.99998H12C12 7.61664 11.5125 6.43748 10.5375 5.46248C9.56248 4.48748 8.38331 3.99998 6.99997 3.99998C5.61664 3.99998 4.43747 4.48748 3.46247 5.46248C2.48747 6.43748 1.99997 7.61664 1.99997 8.99998ZM3.03777 17.423C2.78694 17.423 2.57691 17.3382 2.40768 17.1685C2.23844 16.9988 2.15382 16.7886 2.15382 16.5377C2.15382 16.2869 2.23867 16.0769 2.40835 15.9077C2.57803 15.7384 2.78829 15.6538 3.03913 15.6538C3.28994 15.6538 3.49997 15.7386 3.6692 15.9083C3.83843 16.078 3.92305 16.2882 3.92305 16.5391C3.92305 16.7899 3.83821 16.9999 3.66852 17.1692C3.49884 17.3384 3.28859 17.423 3.03777 17.423ZM6.9993 17.423C6.74847 17.423 6.53843 17.3382 6.3692 17.1685C6.19998 16.9988 6.11538 16.7886 6.11538 16.5377C6.11538 16.2869 6.20021 16.0769 6.36987 15.9077C6.53956 15.7384 6.74982 15.6538 7.00065 15.6538C7.25148 15.6538 7.46152 15.7386 7.63075 15.9083C7.79997 16.078 7.88457 16.2882 7.88457 16.5391C7.88457 16.7899 7.79974 16.9999 7.63007 17.1692C7.46039 17.3384 7.25013 17.423 6.9993 17.423ZM10.9608 17.423C10.71 17.423 10.5 17.3382 10.3308 17.1685C10.1615 16.9988 10.0769 16.7886 10.0769 16.5377C10.0769 16.2869 10.1617 16.0769 10.3314 15.9077C10.5011 15.7384 10.7114 15.6538 10.9622 15.6538C11.213 15.6538 11.423 15.7386 11.5923 15.9083C11.7615 16.078 11.8461 16.2882 11.8461 16.5391C11.8461 16.7899 11.7613 16.9999 11.5916 17.1692C11.4219 17.3384 11.2117 17.423 10.9608 17.423Z"/></symbol>
  <symbol id="bed" xmlns="http://www.w3.org/2000/svg" fill="none" viewBox="0 0 20 13"><path fill="currentColor" d="M0.5 12.4999V6.99993C0.5 6.62686 0.588467 6.265 0.7654 5.91435C0.942317 5.56372 1.18718 5.27558 1.5 5.04995V2.49995C1.5 1.80125 1.74198 1.20992 2.22595 0.725951C2.70993 0.241984 3.30128 0 3.99998 0H8.25C8.6141 0 8.94038 0.0708333 9.22883 0.2125C9.51729 0.354167 9.77434 0.55 9.99998 0.8C10.2256 0.55 10.4827 0.354167 10.7711 0.2125C11.0596 0.0708333 11.3859 0 11.75 0H16C16.6987 0 17.29 0.241984 17.774 0.725951C18.258 1.20992 18.5 1.80125 18.5 2.49995V5.04995C18.8128 5.27558 19.0576 5.56372 19.2346 5.91435C19.4115 6.265 19.5 6.62686 19.5 6.99993V12.4999H18V10.4999H1.99998V12.4999H0.5ZM10.75 4.49995H17V2.49995C17 2.21662 16.9041 1.97912 16.7125 1.78745C16.5208 1.59578 16.2833 1.49995 16 1.49995H11.75C11.4666 1.49995 11.2291 1.59578 11.0375 1.78745C10.8458 1.97912 10.75 2.21662 10.75 2.49995V4.49995ZM2.99998 4.49995H9.25V2.49995C9.25 2.21662 9.15417 1.97912 8.9625 1.78745C8.77083 1.59578 8.53333 1.49995 8.25 1.49995H3.99998C3.71664 1.49995 3.47914 1.59578 3.28748 1.78745C3.09581 1.97912 2.99998 2.21662 2.99998 2.49995V4.49995ZM1.99998 8.99993H18V6.99993C18 6.71659 17.9041 6.47909 17.7125 6.28743C17.5208 6.09576 17.2833 5.99993 17 5.99993H2.99998C2.71664 5.99993 2.47914 6.09576 2.28748 6.28743C2.09581 6.47909 1.99998 6.71659 1.99998 6.99993V8.99993Z"/></symbol>
  <symbol id="square" xmlns="http://www.w3.org/2000/svg" fill="none" viewBox="0 0 18 18"><path fill="currentColor" d="M0.5 17.5V12.7884H1.99997V16H5.21153V17.5H0.5ZM12.798 17.5V16H16.0096V12.7884H17.5096V17.5H12.798ZM0.5 5.21153V0.5H5.21153V1.99998H1.99997V5.21153H0.5ZM16.0096 5.21153V1.99998H12.798V0.5H17.5096V5.21153H16.0096Z"/></symbol>
</svg>
